<svg class="svg-icon" style="width: 1em; height: 1em;vertical-align: middle;fill:rgb(75,85,99);overflow: hidden;" viewBox="0 0 1024 1024" version="1.1" xmlns="http://www.w3.org/2000/svg"><path d="M957.025 498.524c-1.182-2.542-29.706-62.95-99.139-122.769-40.483-34.878-86.776-62.653-137.593-82.553C657.256 268.517 587.175 256 512 256c-65.271 0-126.699 9.442-183.014 28.087L214.449 169.551c-12.398-12.398-32.5-12.398-44.898 0s-12.398 32.5 0 44.898l95.736 95.736c-35.903 17.741-69.14 39.696-99.172 65.571-69.432 59.818-97.958 120.227-99.138 122.769A31.986 31.986 0 0 0 64 512v1c0 4.655 1.016 9.254 2.976 13.475 1.18 2.542 29.706 62.95 99.138 122.769 40.483 34.879 86.776 62.654 137.593 82.554C366.745 756.482 436.825 769 512 769c65.563 0 127.248-9.523 183.769-28.333l113.782 113.782c6.199 6.199 14.324 9.299 22.449 9.299s16.25-3.1 22.449-9.299c12.398-12.398 12.398-32.5 0-44.898l-95.07-95.07c35.647-17.683 68.662-39.521 98.508-65.236 69.433-59.819 97.957-120.227 99.139-122.769A32.016 32.016 0 0 0 960.001 513v-1a32.035 32.035 0 0 0-2.976-13.476zM512 705c-120.277 0-221.816-34.406-301.797-102.264-41.888-35.538-66.705-71.551-77.957-90.236 11.252-18.686 36.068-54.698 77.957-90.236 31.164-26.44 65.616-47.777 103.159-64.003l65.32 65.32c-16.868 25.349-26.713 55.754-26.713 88.419 0 88.241 71.789 160.031 160.031 160.031 32.665 0 63.07-9.846 88.419-26.714l43.926 43.926C603.203 699.712 559.042 705 512 705z m86.483-151.415L470.416 425.517c12.587-6.078 26.695-9.486 41.584-9.486 52.917 0 95.969 43.052 95.969 95.969 0 14.889-3.408 28.997-9.486 41.585z m-44.898 44.898c-12.588 6.077-26.696 9.485-41.585 9.485-52.917 0-95.969-43.052-95.969-95.969 0-14.889 3.408-28.997 9.486-41.584l128.068 128.068z m260.213 4.253c-30.971 26.276-65.188 47.513-102.461 63.702l-66.02-66.02c16.868-25.349 26.714-55.754 26.714-88.419 0-88.241-71.79-160.031-160.031-160.031-32.665 0-63.07 9.846-88.419 26.713l-43.127-43.127C421.367 325.22 465.262 320 512 320c120.277 0 221.816 34.406 301.798 102.264 41.888 35.538 66.705 71.551 77.956 90.236-11.251 18.685-36.068 54.698-77.956 90.236z"  /></svg>